<svg height="2926" width="720" xmlns="http://www.w3.org/2000/svg">
<rect height="2926" fill="#555" width="720"></rect>
<text fill="#7f7" font-family="Courier New" font-size="12" xml:space="preserve">
<tspan x="10" y="26">8 megabytes installed</tspan>
<tspan x="10" y="42"></tspan>
<tspan x="10" y="58">node_modules</tspan>
<tspan x="10" y="74">└─┬ gulp-command@0.1.2 </tspan>
<tspan x="10" y="90">  ├─┬ gulp@3.9.1 </tspan>
<tspan x="10" y="106">  │ ├── archy@1.0.0 </tspan>
<tspan x="10" y="122">  │ ├─┬ chalk@1.1.3 </tspan>
<tspan x="10" y="138">  │ │ ├── ansi-styles@2.2.1 </tspan>
<tspan x="10" y="154">  │ │ ├── escape-string-regexp@1.0.5 </tspan>
<tspan x="10" y="170">  │ │ ├─┬ has-ansi@2.0.0 </tspan>
<tspan x="10" y="186">  │ │ │ └── ansi-regex@2.1.1 </tspan>
<tspan x="10" y="202">  │ │ ├── strip-ansi@3.0.1 </tspan>
<tspan x="10" y="218">  │ │ └── supports-color@2.0.0 </tspan>
<tspan x="10" y="234">  │ ├── deprecated@0.0.1 </tspan>
<tspan x="10" y="250">  │ ├─┬ gulp-util@3.0.8 </tspan>
<tspan x="10" y="266">  │ │ ├── array-differ@1.0.0 </tspan>
<tspan x="10" y="282">  │ │ ├── array-uniq@1.0.3 </tspan>
<tspan x="10" y="298">  │ │ ├── beeper@1.1.1 </tspan>
<tspan x="10" y="314">  │ │ ├── dateformat@2.0.0 </tspan>
<tspan x="10" y="330">  │ │ ├─┬ fancy-log@1.3.0 </tspan>
<tspan x="10" y="346">  │ │ │ └── time-stamp@1.0.1 </tspan>
<tspan x="10" y="362">  │ │ ├─┬ gulplog@1.0.0 </tspan>
<tspan x="10" y="378">  │ │ │ └── glogg@1.0.0 </tspan>
<tspan x="10" y="394">  │ │ ├─┬ has-gulplog@0.1.0 </tspan>
<tspan x="10" y="410">  │ │ │ └── sparkles@1.0.0 </tspan>
<tspan x="10" y="426">  │ │ ├── lodash._reescape@3.0.0 </tspan>
<tspan x="10" y="442">  │ │ ├── lodash._reevaluate@3.0.0 </tspan>
<tspan x="10" y="458">  │ │ ├── lodash._reinterpolate@3.0.0 </tspan>
<tspan x="10" y="474">  │ │ ├─┬ lodash.template@3.6.2 </tspan>
<tspan x="10" y="490">  │ │ │ ├── lodash._basecopy@3.0.1 </tspan>
<tspan x="10" y="506">  │ │ │ ├── lodash._basetostring@3.0.1 </tspan>
<tspan x="10" y="522">  │ │ │ ├── lodash._basevalues@3.0.0 </tspan>
<tspan x="10" y="538">  │ │ │ ├── lodash._isiterateecall@3.0.9 </tspan>
<tspan x="10" y="554">  │ │ │ ├─┬ lodash.escape@3.2.0 </tspan>
<tspan x="10" y="570">  │ │ │ │ └── lodash._root@3.0.1 </tspan>
<tspan x="10" y="586">  │ │ │ ├─┬ lodash.keys@3.1.2 </tspan>
<tspan x="10" y="602">  │ │ │ │ ├── lodash._getnative@3.9.1 </tspan>
<tspan x="10" y="618">  │ │ │ │ ├── lodash.isarguments@3.1.0 </tspan>
<tspan x="10" y="634">  │ │ │ │ └── lodash.isarray@3.0.4 </tspan>
<tspan x="10" y="650">  │ │ │ ├── lodash.restparam@3.6.1 </tspan>
<tspan x="10" y="666">  │ │ │ └── lodash.templatesettings@3.1.1 </tspan>
<tspan x="10" y="682">  │ │ ├─┬ multipipe@0.1.2 </tspan>
<tspan x="10" y="698">  │ │ │ └─┬ duplexer2@0.0.2 </tspan>
<tspan x="10" y="714">  │ │ │   └── readable-stream@1.1.14 </tspan>
<tspan x="10" y="730">  │ │ ├── object-assign@3.0.0 </tspan>
<tspan x="10" y="746">  │ │ ├── replace-ext@0.0.1 </tspan>
<tspan x="10" y="762">  │ │ ├─┬ through2@2.0.3 </tspan>
<tspan x="10" y="778">  │ │ │ ├─┬ readable-stream@2.2.9 </tspan>
<tspan x="10" y="794">  │ │ │ │ ├── buffer-shims@1.0.0 </tspan>
<tspan x="10" y="810">  │ │ │ │ ├── core-util-is@1.0.2 </tspan>
<tspan x="10" y="826">  │ │ │ │ ├── inherits@2.0.3 </tspan>
<tspan x="10" y="842">  │ │ │ │ ├── isarray@1.0.0 </tspan>
<tspan x="10" y="858">  │ │ │ │ ├── process-nextick-args@1.0.7 </tspan>
<tspan x="10" y="874">  │ │ │ │ ├── string_decoder@1.0.0 </tspan>
<tspan x="10" y="890">  │ │ │ │ └── util-deprecate@1.0.2 </tspan>
<tspan x="10" y="906">  │ │ │ └── xtend@4.0.1 </tspan>
<tspan x="10" y="922">  │ │ └─┬ vinyl@0.5.3 </tspan>
<tspan x="10" y="938">  │ │   ├── clone@1.0.2 </tspan>
<tspan x="10" y="954">  │ │   └── clone-stats@0.0.1 </tspan>
<tspan x="10" y="970">  │ ├── interpret@1.0.3 </tspan>
<tspan x="10" y="986">  │ ├─┬ liftoff@2.3.0 </tspan>
<tspan x="10" y="1002">  │ │ ├── extend@3.0.0 </tspan>
<tspan x="10" y="1018">  │ │ ├─┬ findup-sync@0.4.3 </tspan>
<tspan x="10" y="1034">  │ │ │ ├─┬ detect-file@0.1.0 </tspan>
<tspan x="10" y="1050">  │ │ │ │ └── fs-exists-sync@0.1.0 </tspan>
<tspan x="10" y="1066">  │ │ │ ├─┬ is-glob@2.0.1 </tspan>
<tspan x="10" y="1082">  │ │ │ │ └── is-extglob@1.0.0 </tspan>
<tspan x="10" y="1098">  │ │ │ ├─┬ micromatch@2.3.11 </tspan>
<tspan x="10" y="1114">  │ │ │ │ ├─┬ arr-diff@2.0.0 </tspan>
<tspan x="10" y="1130">  │ │ │ │ │ └── arr-flatten@1.0.3 </tspan>
<tspan x="10" y="1146">  │ │ │ │ ├── array-unique@0.2.1 </tspan>
<tspan x="10" y="1162">  │ │ │ │ ├─┬ braces@1.8.5 </tspan>
<tspan x="10" y="1178">  │ │ │ │ │ ├─┬ expand-range@1.8.2 </tspan>
<tspan x="10" y="1194">  │ │ │ │ │ │ └─┬ fill-range@2.2.3 </tspan>
<tspan x="10" y="1210">  │ │ │ │ │ │   ├── is-number@2.1.0 </tspan>
<tspan x="10" y="1226">  │ │ │ │ │ │   ├─┬ isobject@2.1.0 </tspan>
<tspan x="10" y="1242">  │ │ │ │ │ │   │ └── isarray@1.0.0 </tspan>
<tspan x="10" y="1258">  │ │ │ │ │ │   ├── randomatic@1.1.6 </tspan>
<tspan x="10" y="1274">  │ │ │ │ │ │   └── repeat-string@1.6.1 </tspan>
<tspan x="10" y="1290">  │ │ │ │ │ ├── preserve@0.2.0 </tspan>
<tspan x="10" y="1306">  │ │ │ │ │ └── repeat-element@1.1.2 </tspan>
<tspan x="10" y="1322">  │ │ │ │ ├─┬ expand-brackets@0.1.5 </tspan>
<tspan x="10" y="1338">  │ │ │ │ │ └── is-posix-bracket@0.1.1 </tspan>
<tspan x="10" y="1354">  │ │ │ │ ├── extglob@0.3.2 </tspan>
<tspan x="10" y="1370">  │ │ │ │ ├── filename-regex@2.0.0 </tspan>
<tspan x="10" y="1386">  │ │ │ │ ├─┬ kind-of@3.1.0 </tspan>
<tspan x="10" y="1402">  │ │ │ │ │ └── is-buffer@1.1.5 </tspan>
<tspan x="10" y="1418">  │ │ │ │ ├─┬ normalize-path@2.1.1 </tspan>
<tspan x="10" y="1434">  │ │ │ │ │ └── remove-trailing-separator@1.0.1 </tspan>
<tspan x="10" y="1450">  │ │ │ │ ├─┬ object.omit@2.0.1 </tspan>
<tspan x="10" y="1466">  │ │ │ │ │ ├─┬ for-own@0.1.5 </tspan>
<tspan x="10" y="1482">  │ │ │ │ │ │ └── for-in@1.0.2 </tspan>
<tspan x="10" y="1498">  │ │ │ │ │ └── is-extendable@0.1.1 </tspan>
<tspan x="10" y="1514">  │ │ │ │ ├─┬ parse-glob@3.0.4 </tspan>
<tspan x="10" y="1530">  │ │ │ │ │ ├─┬ glob-base@0.3.0 </tspan>
<tspan x="10" y="1546">  │ │ │ │ │ │ └── glob-parent@2.0.0 </tspan>
<tspan x="10" y="1562">  │ │ │ │ │ └── is-dotfile@1.0.2 </tspan>
<tspan x="10" y="1578">  │ │ │ │ └─┬ regex-cache@0.4.3 </tspan>
<tspan x="10" y="1594">  │ │ │ │   ├── is-equal-shallow@0.1.3 </tspan>
<tspan x="10" y="1610">  │ │ │ │   └── is-primitive@2.0.0 </tspan>
<tspan x="10" y="1626">  │ │ │ └─┬ resolve-dir@0.1.1 </tspan>
<tspan x="10" y="1642">  │ │ │   └─┬ global-modules@0.2.3 </tspan>
<tspan x="10" y="1658">  │ │ │     ├─┬ global-prefix@0.1.5 </tspan>
<tspan x="10" y="1674">  │ │ │     │ ├─┬ homedir-polyfill@1.0.1 </tspan>
<tspan x="10" y="1690">  │ │ │     │ │ └── parse-passwd@1.0.0 </tspan>
<tspan x="10" y="1706">  │ │ │     │ ├── ini@1.3.4 </tspan>
<tspan x="10" y="1722">  │ │ │     │ └─┬ which@1.2.14 </tspan>
<tspan x="10" y="1738">  │ │ │     │   └── isexe@2.0.0 </tspan>
<tspan x="10" y="1754">  │ │ │     └── is-windows@0.2.0 </tspan>
<tspan x="10" y="1770">  │ │ ├─┬ fined@1.0.2 </tspan>
<tspan x="10" y="1786">  │ │ │ ├── expand-tilde@1.2.2 </tspan>
<tspan x="10" y="1802">  │ │ │ ├── lodash.assignwith@4.2.0 </tspan>
<tspan x="10" y="1818">  │ │ │ ├── lodash.isempty@4.4.0 </tspan>
<tspan x="10" y="1834">  │ │ │ ├── lodash.pick@4.4.0 </tspan>
<tspan x="10" y="1850">  │ │ │ └─┬ parse-filepath@1.0.1 </tspan>
<tspan x="10" y="1866">  │ │ │   ├─┬ is-absolute@0.2.6 </tspan>
<tspan x="10" y="1882">  │ │ │   │ └─┬ is-relative@0.2.1 </tspan>
<tspan x="10" y="1898">  │ │ │   │   └─┬ is-unc-path@0.1.2 </tspan>
<tspan x="10" y="1914">  │ │ │   │     └── unc-path-regex@0.1.2 </tspan>
<tspan x="10" y="1930">  │ │ │   ├── map-cache@0.2.2 </tspan>
<tspan x="10" y="1946">  │ │ │   └─┬ path-root@0.1.1 </tspan>
<tspan x="10" y="1962">  │ │ │     └── path-root-regex@0.1.2 </tspan>
<tspan x="10" y="1978">  │ │ ├── flagged-respawn@0.3.2 </tspan>
<tspan x="10" y="1994">  │ │ ├── lodash.isplainobject@4.0.6 </tspan>
<tspan x="10" y="2010">  │ │ ├── lodash.isstring@4.0.1 </tspan>
<tspan x="10" y="2026">  │ │ ├── lodash.mapvalues@4.6.0 </tspan>
<tspan x="10" y="2042">  │ │ ├── rechoir@0.6.2 </tspan>
<tspan x="10" y="2058">  │ │ └─┬ resolve@1.3.3 </tspan>
<tspan x="10" y="2074">  │ │   └── path-parse@1.0.5 </tspan>
<tspan x="10" y="2090">  │ ├─┬ orchestrator@0.3.8 </tspan>
<tspan x="10" y="2106">  │ │ ├─┬ end-of-stream@0.1.5 </tspan>
<tspan x="10" y="2122">  │ │ │ └─┬ once@1.3.3 </tspan>
<tspan x="10" y="2138">  │ │ │   └── wrappy@1.0.2 </tspan>
<tspan x="10" y="2154">  │ │ ├── sequencify@0.0.7 </tspan>
<tspan x="10" y="2170">  │ │ └── stream-consume@0.1.0 </tspan>
<tspan x="10" y="2186">  │ ├── pretty-hrtime@1.0.3 </tspan>
<tspan x="10" y="2202">  │ ├── semver@4.3.6 </tspan>
<tspan x="10" y="2218">  │ ├─┬ tildify@1.2.0 </tspan>
<tspan x="10" y="2234">  │ │ └── os-homedir@1.0.2 </tspan>
<tspan x="10" y="2250">  │ ├─┬ v8flags@2.1.1 </tspan>
<tspan x="10" y="2266">  │ │ └── user-home@1.1.1 </tspan>
<tspan x="10" y="2282">  │ └─┬ vinyl-fs@0.3.14 </tspan>
<tspan x="10" y="2298">  │   ├── defaults@1.0.3 </tspan>
<tspan x="10" y="2314">  │   ├─┬ glob-stream@3.1.18 </tspan>
<tspan x="10" y="2330">  │   │ ├─┬ glob@4.5.3 </tspan>
<tspan x="10" y="2346">  │   │ │ └── inflight@1.0.6 </tspan>
<tspan x="10" y="2362">  │   │ ├─┬ glob2base@0.0.12 </tspan>
<tspan x="10" y="2378">  │   │ │ └── find-index@0.1.1 </tspan>
<tspan x="10" y="2394">  │   │ ├─┬ minimatch@2.0.10 </tspan>
<tspan x="10" y="2410">  │   │ │ └─┬ brace-expansion@1.1.7 </tspan>
<tspan x="10" y="2426">  │   │ │   ├── balanced-match@0.4.2 </tspan>
<tspan x="10" y="2442">  │   │ │   └── concat-map@0.0.1 </tspan>
<tspan x="10" y="2458">  │   │ ├── ordered-read-streams@0.1.0 </tspan>
<tspan x="10" y="2474">  │   │ ├─┬ through2@0.6.5 </tspan>
<tspan x="10" y="2490">  │   │ │ └── readable-stream@1.0.34 </tspan>
<tspan x="10" y="2506">  │   │ └── unique-stream@1.0.0 </tspan>
<tspan x="10" y="2522">  │   ├─┬ glob-watcher@0.0.6 </tspan>
<tspan x="10" y="2538">  │   │ └─┬ gaze@0.5.2 </tspan>
<tspan x="10" y="2554">  │   │   └─┬ globule@0.1.0 </tspan>
<tspan x="10" y="2570">  │   │     ├─┬ glob@3.1.21 </tspan>
<tspan x="10" y="2586">  │   │     │ ├── graceful-fs@1.2.3 </tspan>
<tspan x="10" y="2602">  │   │     │ └── inherits@1.0.2 </tspan>
<tspan x="10" y="2618">  │   │     ├── lodash@1.0.2 </tspan>
<tspan x="10" y="2634">  │   │     └─┬ minimatch@0.2.14 </tspan>
<tspan x="10" y="2650">  │   │       ├── lru-cache@2.7.3 </tspan>
<tspan x="10" y="2666">  │   │       └── sigmund@1.0.1 </tspan>
<tspan x="10" y="2682">  │   ├─┬ graceful-fs@3.0.11 </tspan>
<tspan x="10" y="2698">  │   │ └── natives@1.1.0 </tspan>
<tspan x="10" y="2714">  │   ├─┬ mkdirp@0.5.1 </tspan>
<tspan x="10" y="2730">  │   │ └── minimist@0.0.8 </tspan>
<tspan x="10" y="2746">  │   ├─┬ strip-bom@1.0.0 </tspan>
<tspan x="10" y="2762">  │   │ ├── first-chunk-stream@1.0.0 </tspan>
<tspan x="10" y="2778">  │   │ └── is-utf8@0.2.1 </tspan>
<tspan x="10" y="2794">  │   ├─┬ through2@0.6.5 </tspan>
<tspan x="10" y="2810">  │   │ └─┬ readable-stream@1.0.34 </tspan>
<tspan x="10" y="2826">  │   │   ├── isarray@0.0.1 </tspan>
<tspan x="10" y="2842">  │   │   └── string_decoder@0.10.31 </tspan>
<tspan x="10" y="2858">  │   └─┬ vinyl@0.4.6 </tspan>
<tspan x="10" y="2874">  │     └── clone@0.2.0 </tspan>
<tspan x="10" y="2890">  ├── lodash@2.4.2 </tspan>
<tspan x="10" y="2906">  └── minimist@1.2.0</tspan>
</text>
</svg>
